<!-- Generated by IcoMoon.io -->
<svg version="1.1" xmlns="http://www.w3.org/2000/svg" width="448" height="448" viewBox="0 0 448 448">
<title></title>
<g id="icomoon-ignore">
</g>
<path d="M64 336c0-8.75-7.25-16-16-16s-16 7.25-16 16 7.25 16 16 16 16-7.25 16-16zM416 192c0-17-15.25-32-32-32h-144c0-15.75 24-32 24-64 0-24-18.75-32-40-32-7 0-19.75 29-22.5 34.75-3 5.5-6 11-9.25 16.25-8.25 13.25-17.75 24.75-28 36.25-16 18.25-33.75 40.75-60.25 40.75h-8v160h8c43.75 0 86.5 32 135 32 28 0 47.25-11.75 47.25-41.75 0-4.75-0.5-9.5-1.25-14 10.5-5.75 16.25-20 16.25-31.5 0-6-1.5-12-4.5-17.25 8.5-8 13.25-18 13.25-29.75 0-8-3.5-19.75-8.75-25.75h82.75c17.25 0 32-14.75 32-32zM448 191.75c0 35-29 64.25-64 64.25h-42.25c-0.75 10.5-4 20.5-9.25 29.75 0.5 3.5 0.75 7.25 0.75 10.75 0 16-5.25 32-15 44.5 0.5 47.25-31.75 75-78 75-28 0-54.5-7.75-80.5-17.25-15.25-5.5-40-14.75-55.75-14.75h-72c-17.75 0-32-14.25-32-32v-160c0-17.75 14.25-32 32-32h72c12 0 29-21.5 36.25-29.75 9-10.25 17.5-20.5 25-32.25 14.5-23.25 25.25-66 58.75-66 39.75 0 72 21.75 72 64 0 11-1.75 21.75-5.5 32h93.5c34.5 0 64 29.25 64 63.75z"></path>
</svg>
