<?xml version="1.0" encoding="UTF-8" standalone="no"?>
<!-- Created with Inkscape (http://www.inkscape.org/) -->

<svg
   width="48"
   height="48"
   viewBox="0 0 12.7 12.7"
   version="1.1"
   id="svg5"
   xml:space="preserve"
   inkscape:version="1.2.2 (b0a8486541, 2022-12-01)"
   sodipodi:docname="pareja.svg"
   xmlns:inkscape="http://www.inkscape.org/namespaces/inkscape"
   xmlns:sodipodi="http://sodipodi.sourceforge.net/DTD/sodipodi-0.dtd"
   xmlns="http://www.w3.org/2000/svg"
   xmlns:svg="http://www.w3.org/2000/svg"><sodipodi:namedview
     id="namedview7"
     pagecolor="#505050"
     bordercolor="#eeeeee"
     borderopacity="1"
     inkscape:showpageshadow="0"
     inkscape:pageopacity="0"
     inkscape:pagecheckerboard="0"
     inkscape:deskcolor="#505050"
     inkscape:document-units="px"
     showgrid="false"
     inkscape:zoom="6.4996633"
     inkscape:cx="21.154942"
     inkscape:cy="30.001554"
     inkscape:window-width="1356"
     inkscape:window-height="697"
     inkscape:window-x="0"
     inkscape:window-y="35"
     inkscape:window-maximized="1"
     inkscape:current-layer="layer1" /><defs
     id="defs2" /><g
     inkscape:label="Layer 1"
     inkscape:groupmode="layer"
     id="layer1"><g
       id="g2629"
       transform="matrix(0.66656604,0,0,0.66657062,-2147.1457,106.50191)"
       inkscape:export-xdpi="518.47473"
       inkscape:export-ydpi="518.47473"><g
         transform="matrix(0.15241037,0,0,0.15235729,2731.5686,-133.57018)"
         id="g2615"><path
           inkscape:connector-curvature="0"
           id="path2611"
           d="m 3282.2434,-59.14896 c -0.4493,-0.10164 -0.9293,-0.25428 -1.0667,-0.3392 -0.51,-0.31519 -0.3732,-1.84919 0.267,-2.99469 0.8888,-1.59019 1.0359,-2.4652 0.8215,-4.88694 l -0.1849,-2.08846 -0.8942,0.68208 c -0.4918,0.37514 -1.2299,1.2947 -1.6402,2.04346 -0.4102,0.74876 -0.9184,1.63454 -1.1293,1.96841 -0.3526,0.55815 -0.3318,0.64632 0.2587,1.09485 0.7719,0.58631 0.913,1.53802 0.2588,1.74566 -0.5815,0.18457 -2.2859,-0.51116 -3.0802,-1.25733 -0.6995,-0.65715 -0.7569,-1.54345 -0.202,-3.11625 0.8347,-2.36576 0.1778,-3.15397 -1.3229,-1.5875 -0.4183,0.43656 -0.9466,0.78928 -1.174,0.78381 -0.2657,-0.006 -0.068,-0.31374 0.5542,-0.85989 0.5322,-0.46748 1.3294,-1.57793 1.7716,-2.46767 0.857,-1.72464 1.2551,-1.95417 3.3897,-1.95417 1.148,0 2.8613,-0.86665 3.4304,-1.73519 0.4679,-0.71411 0.3608,-1.11854 -0.6417,-2.42418 -0.3977,-0.518 -0.7834,-0.60823 -3.2601,-0.76278 l -2.809,-0.1753 -1.6181,0.91187 c -1.3467,0.75892 -2.4417,1.85209 -6.5286,6.51747 -2.7008,3.08309 -5.0243,5.60561 -5.1633,5.60561 -0.139,0 -0.7325,-0.43342 -1.3188,-0.96315 -0.5864,-0.52973 -1.0984,-0.91668 -1.1378,-0.85989 -0.039,0.0568 -0.2124,0.43067 -0.3843,0.83085 -0.2914,0.6786 -0.4197,0.72761 -1.9056,0.72761 -1.4168,0 -1.5932,-0.0586 -1.5932,-0.52917 0,-0.76485 -0.7997,-0.67503 -2.6738,0.30031 -1.5197,0.79091 -1.7022,0.82329 -3.9265,0.69646 -1.283,-0.0731 -2.4555,-0.20886 -2.6055,-0.30157 -0.1607,-0.0993 -0.193,-0.46663 -0.079,-0.89432 0.1575,-0.58893 0.5507,-0.87551 2.0859,-1.52009 1.413,-0.5933 2.2158,-1.14587 3.1721,-2.18339 0.7041,-0.76399 1.4306,-1.38907 1.6144,-1.38907 0.1838,0 1.3077,-0.92772 2.4975,-2.06161 1.1899,-1.13388 2.5972,-2.32636 3.1274,-2.64994 0.8202,-0.50063 2.3434,-2.13617 2.3434,-2.51631 0,-0.31358 -3.807,1.95259 -5.6889,3.38643 -1.1643,0.88711 -3.4709,2.38223 -5.1257,3.32249 -2.6567,1.50952 -4.4765,2.97749 -5.6458,4.55411 -0.2048,0.27612 -0.8684,0.52546 -1.6636,0.62502 -0.7276,0.0911 -1.561,0.31087 -1.8521,0.48837 -0.6973,0.42526 -2.2489,0.72152 -2.2489,0.42939 0,-0.12632 0.1975,-0.30545 0.4389,-0.39808 0.3801,-0.14588 0.3447,-0.26668 -0.2646,-0.90268 -0.7538,-0.7868 -0.9091,-1.66241 -0.3728,-2.10262 0.1819,-0.14932 1.0451,-0.35506 1.9183,-0.45721 0.9122,-0.10672 2.0939,-0.47145 2.7781,-0.85745 0.6548,-0.36945 3.2742,-2.77815 5.8208,-5.35266 2.9146,-2.94648 5.0224,-4.85976 5.6886,-5.16353 2.8789,-1.31274 5.5273,-4.05584 8.8139,-9.12913 1.0841,-1.67349 2.3301,-3.42347 2.7687,-3.88884 0.4387,-0.46537 1.1127,-1.49812 1.4979,-2.29502 0.618,-1.27871 0.6413,-1.41733 0.1981,-1.18017 -0.2761,0.14779 -0.9066,0.19282 -1.4011,0.10006 -1.3411,-0.25159 -1.9557,-1.62129 -1.9557,-4.35866 v -2.1187 l -2.2507,-0.68651 c -1.9154,-0.58423 -2.3124,-0.80587 -2.665,-1.48759 -0.2278,-0.4406 -0.3521,-0.96284 -0.2763,-1.16054 0.077,-0.20139 -0.079,-0.42817 -0.3545,-0.51574 -0.2708,-0.086 -0.936,-0.50878 -1.4781,-0.93959 -0.5421,-0.43081 -1.1478,-0.78329 -1.3461,-0.78329 -0.1983,0 -0.3654,-0.0893 -0.3713,-0.19843 -0.01,-0.10914 -0.3751,-0.61516 -0.8206,-1.12448 -0.7369,-0.84266 -0.7942,-0.86649 -0.637,-0.26459 0.1605,0.61407 0.1453,0.62715 -0.2123,0.18261 -0.2565,-0.31891 -0.4455,-0.38132 -0.5657,-0.18685 -0.099,0.1606 -0.036,0.46539 0.1393,0.67729 0.214,0.2578 0.2246,0.38529 0.032,0.38529 -0.1582,0 -0.4287,-0.26348 -0.601,-0.58551 l -0.3134,-0.58551 -0.2292,0.61961 c -0.2539,0.68656 0.053,1.22852 0.8368,1.47727 0.2644,0.0839 0.5424,0.3132 0.6178,0.50947 0.2666,0.69487 -0.8848,0.10181 -1.6835,-0.86707 -0.4453,-0.54032 -0.7876,-0.78399 -0.7899,-0.5624 0,0.34103 -0.037,0.34028 -0.2605,-0.006 -0.4046,-0.62602 -0.3087,-1.47472 0.2434,-2.15351 0.5034,-0.61897 0.5026,-0.6318 -0.093,-1.41837 -1.6338,-2.15746 -1.8532,-3.63343 -0.838,-5.6368 0.6837,-1.34929 2.5323,-3.71491 3.1909,-4.08352 0.4768,-0.26682 2.3149,0.0236 2.1222,0.3353 -0.216,0.3495 1.6343,0.83312 2.8483,0.74447 0.9927,-0.0725 1.1352,-0.0125 1.2098,0.50888 0.054,0.37836 0.2683,0.59105 0.5953,0.59105 0.2809,0 0.5107,0.17485 0.5107,0.38857 0,0.23669 0.1552,0.32904 0.3969,0.23627 0.2183,-0.0838 0.3969,-0.0396 0.3969,0.0981 0,0.13773 0.3065,0.39006 0.681,0.56072 l 0.6811,0.3103 -0.5488,0.88788 c -0.7541,1.22023 -0.71,2.40796 0.1203,3.23824 0.3679,0.36793 0.7928,0.62769 0.9441,0.57724 0.4874,-0.16245 1.8507,-3.74347 1.919,-5.04058 0.072,-1.37083 0.023,-1.42746 -0.7384,-0.85148 -0.5848,0.4423 -2,0.52594 -2,0.1182 0,-0.14864 -0.3022,-0.40797 -0.6716,-0.57629 -0.3695,-0.16832 -0.6181,-0.44592 -0.5524,-0.61688 0.1423,-0.3709 -0.6444,-1.09631 -1.3303,-1.22664 -0.346,-0.0657 -0.53,-0.40059 -0.6311,-1.14876 -0.078,-0.58078 -0.3463,-1.49863 -0.5953,-2.03965 -0.2489,-0.54103 -0.4526,-1.10557 -0.4526,-1.25453 0,-0.14896 -0.2381,-0.41955 -0.5292,-0.60131 -0.3621,-0.22615 -0.5291,-0.61702 -0.5291,-1.23822 0,-0.73072 0.2326,-1.13068 1.1929,-2.05083 2.2711,-2.17601 3.0622,-2.5495 5.46,-2.57762 l 2.1371,-0.025 0.9794,1.10267 c 0.5387,0.60648 1.1293,1.61851 1.3126,2.24896 0.1833,0.63046 0.5424,1.54907 0.798,2.04135 0.4432,0.85367 0.5372,0.89719 2.0314,0.94069 1.5399,0.0448 1.6051,0.0168 3.8156,-1.64254 2.1328,-1.60092 2.306,-1.67961 3.352,-1.523 l 1.1031,0.16515 0.2746,-1.40206 c 0.5221,-2.66466 0.6265,-4.35915 0.3055,-4.95894 -0.2314,-0.43234 -0.3956,-0.50688 -0.6506,-0.2953 -0.2503,0.20778 -0.5203,0.14198 -1.0154,-0.2475 -0.371,-0.29179 -0.8063,-0.53053 -0.9674,-0.53053 -0.1611,0 -0.5138,-0.36324 -0.7838,-0.80721 -0.4505,-0.74086 -0.5025,-0.76261 -0.6328,-0.26459 -0.217,0.82994 -0.7206,0.64527 -0.7206,-0.26425 0,-0.96326 0.6141,-2.24255 1.1809,-2.46004 0.2236,-0.0858 0.4066,-0.39088 0.4066,-0.6779 0,-0.28703 0.1191,-0.59544 0.2646,-0.68538 0.1455,-0.0899 0.2646,-0.0374 0.2646,0.11668 0,0.1541 0.2845,0.28019 0.6321,0.28019 0.3477,0 1.4471,0.47625 2.4432,1.05834 0.9961,0.58208 2.0122,1.05833 2.258,1.05833 0.2458,0 0.7835,0.28188 1.1948,0.6264 0.4114,0.34452 1.4921,1.00108 2.4016,1.45902 0.9095,0.45794 1.6536,0.94025 1.6536,1.07181 0,0.13156 0.3974,0.48481 0.8832,0.785 1.5009,0.9276 4.155,4.12289 4.3323,5.21573 0.1519,0.93612 0.086,1.03249 -2.1931,3.20138 -1.7828,1.69675 -2.8776,2.49175 -4.5381,3.29548 -1.2036,0.58259 -2.1884,1.11533 -2.1884,1.18386 0,0.40859 2.1391,5.19504 3.5104,7.8548 1.0931,2.12018 2.076,3.61395 3.0468,4.63021 1.7523,1.83456 2.2055,2.69332 3.1061,5.88665 0.3866,1.37103 0.9961,3.44239 1.3543,4.60302 0.7412,2.40133 0.8427,2.17133 -1.5585,3.52922 l -1.2565,0.71055 -0.01,3.43958 c 0,1.89177 -0.077,4.06971 -0.1637,4.83987 l -0.1571,1.40028 1.5847,1.65022 c 0.8715,0.90762 2.0152,2.32344 2.5416,3.14626 0.5263,0.82283 1.0699,1.56583 1.2079,1.65111 0.138,0.0853 0.4387,0.53158 0.6683,0.99176 0.4183,0.83859 0.2465,1.25393 -0.5235,1.26541 -0.1495,0.002 -0.5386,0.1909 -0.8646,0.41927 l -0.5928,0.41522 0.5339,0.67879 c 0.8713,1.10762 0.5326,2.7241 -0.5707,2.7241 -0.3062,0 -0.699,0.19442 -0.8727,0.43204 -0.2814,0.3848 -0.4192,0.32879 -1.2604,-0.51237 -1.6148,-1.61488 -2.956,-1.5858 -5.6497,0.12249 -1.1637,0.73804 -1.213,0.81861 -1.046,1.70917 0.097,0.51404 0.063,1.07442 -0.074,1.24529 -0.2554,0.31864 -0.6142,3.12547 -0.5808,4.54401 0.01,0.43656 -0.1802,1.84706 -0.4231,3.13445 l -0.4417,2.34071 -1.0867,0.46126 c -1.4349,0.60907 -2.4941,0.77609 -3.491,0.55053 z m 3.8711,-71.2462 c 0.9262,-0.57841 0.5663,-1.8495 -0.917,-3.23867 -1.8604,-1.7423 -1.7404,-1.82449 -1.7404,1.19204 v 2.71205 l 1.0699,-0.17108 c 0.5884,-0.0941 1.3028,-0.31655 1.5875,-0.49434 z"
           style="fill:#ff8dd5;fill-opacity:1;stroke-width:0.264583" /><path
           inkscape:connector-curvature="0"
           id="path2613"
           d="m 3282.2434,-59.14896 c -1.1735,-0.26548 -1.3092,-0.39682 -1.3808,-1.33646 -0.041,-0.53715 0.2002,-1.2882 0.6646,-2.07064 0.6743,-1.13591 0.7297,-1.44554 0.7396,-4.13819 0.01,-1.60073 0.1,-3.20807 0.209,-3.57187 0.2994,-0.99882 0.4154,-3.69564 0.1656,-3.85 -0.1207,-0.0746 -0.1592,-0.29292 -0.086,-0.48507 0.074,-0.19216 -0.2465,-0.96165 -0.7117,-1.70997 -0.9678,-1.55694 -1.2302,-3.24657 -0.7867,-5.06746 0.1594,-0.65485 0.4629,-2.76354 0.6742,-4.686 0.3115,-2.8324 0.5294,-3.78588 1.1487,-5.02708 0.7029,-1.40877 0.7359,-1.59971 0.4104,-2.37877 -0.1947,-0.46587 -0.2522,-0.90991 -0.1279,-0.98674 0.3632,-0.22449 0.081,-1.70917 -0.6015,-3.16653 -0.3478,-0.74232 -1.0755,-2.77842 -1.6172,-4.52467 -0.8598,-2.77169 -1.8218,-5.15938 -2.0786,-5.15938 -0.046,0 -0.098,0.14883 -0.1157,0.33073 -0.018,0.1819 -0.073,0.70225 -0.123,1.15632 -0.1154,1.0568 -2.1324,3.49133 -3.2949,3.97706 -1.0113,0.42254 -0.9833,0.34498 -0.4755,1.31867 0.5412,1.03767 0.5028,1.8797 -0.094,2.06921 -0.271,0.086 -1.1342,0.21895 -1.9182,0.29539 -0.784,0.0764 -2.1899,0.49977 -3.1242,0.94074 -2.2398,1.05711 -3.2351,0.91626 -3.9906,-0.56472 -0.3986,-0.78133 -0.5284,-1.55889 -0.5284,-3.16641 v -2.13076 l 0.987,0.41239 c 0.8899,0.3718 1.0164,0.37215 1.286,0.004 0.1644,-0.22486 0.4394,-0.40884 0.6112,-0.40884 0.1717,0 0.6349,-0.21313 1.0291,-0.47362 0.3943,-0.2605 0.9466,-0.59556 1.2273,-0.74458 0.3104,-0.16481 0.5353,-0.59774 0.574,-1.10508 0.09,-1.18424 1.4208,-3.53912 1.9398,-3.43338 0.4302,0.0876 0.4996,0.78471 0.1583,1.58947 -0.3325,0.78401 0.6013,0.55397 2.6225,-0.64605 1.0274,-0.60999 1.9147,-1.1429 1.9718,-1.18423 0.057,-0.0413 -0.034,-0.24132 -0.2026,-0.4444 -0.1685,-0.20308 -0.482,-0.96034 -0.6965,-1.68279 -0.4646,-1.56444 -0.9452,-2.04469 -2.4459,-2.44426 -0.6185,-0.16467 -1.1245,-0.41266 -1.1245,-0.5511 0,-0.13843 2.1587,-2.37046 4.797,-4.96006 l 4.797,-4.70837 0.2484,-2.63651 c 0.1367,-1.45007 0.26,-2.77186 0.2742,-2.93731 0.014,-0.16545 0.5391,-0.37117 1.1665,-0.45717 2.0976,-0.2875 2.6192,-0.99533 1.8396,-2.49631 -0.3894,-0.74984 -2.4587,-2.60582 -2.8006,-2.51191 -0.1093,0.0301 -0.2028,-0.32714 -0.2075,-0.79375 0,-0.46661 -0.02,-0.98531 -0.035,-1.15265 -0.014,-0.16818 -0.4518,-0.30428 -0.9783,-0.30428 -0.5239,0 -1.0835,-0.13096 -1.2435,-0.29104 -0.482,-0.48195 -0.7342,-0.32967 -0.5657,0.34156 0.2183,0.86983 -0.2196,1.05117 -1.0192,0.42213 -0.3675,-0.28905 -0.8,-0.52556 -0.9611,-0.52556 -0.1611,0 -0.5138,-0.36324 -0.7838,-0.80721 -0.4505,-0.74086 -0.5025,-0.76261 -0.6328,-0.26459 -0.078,0.29845 -0.2721,0.54264 -0.4312,0.54264 -0.387,0 -0.3522,-1.57351 0.051,-2.29587 0.3636,-0.65185 2.1453,-1.93747 2.685,-1.93747 0.1957,0 1.1708,0.47625 2.1669,1.05834 0.9961,0.58208 2.0122,1.05833 2.258,1.05833 0.2458,0 0.7835,0.28188 1.1948,0.6264 0.4114,0.34452 1.4921,1.00108 2.4016,1.45902 0.9095,0.45794 1.6536,0.94025 1.6536,1.07181 0,0.13156 0.3974,0.48481 0.8832,0.785 1.5009,0.9276 4.155,4.12289 4.3323,5.21573 0.1519,0.93612 0.086,1.03249 -2.1931,3.20138 -1.7828,1.69675 -2.8776,2.49175 -4.5381,3.29548 -1.2036,0.58259 -2.1884,1.11533 -2.1884,1.18386 0,0.40859 2.1391,5.19504 3.5104,7.8548 1.0931,2.12018 2.076,3.61395 3.0468,4.63021 1.7523,1.83456 2.2055,2.69332 3.1061,5.88665 0.3866,1.37103 0.9961,3.44239 1.3543,4.60302 0.7412,2.40133 0.8427,2.17133 -1.5585,3.52922 l -1.2565,0.71055 -0.033,3.77031 c -0.018,2.07367 -0.063,3.88937 -0.099,4.03489 -0.036,0.14552 -0.081,0.67424 -0.099,1.17494 -0.033,0.90406 -0.038,0.90777 -0.7544,0.53612 -0.3967,-0.20583 -0.8015,-0.28806 -0.8995,-0.18275 -0.2455,0.26368 -3.2777,9.34928 -3.7726,11.30399 -0.6856,2.70757 -0.7437,3.30729 -0.3209,3.30729 0.2082,0 0.4287,-0.14883 0.49,-0.33073 0.061,-0.1819 0.1973,0.12478 0.3024,0.68151 0.1052,0.55783 0.079,1.15171 -0.058,1.32292 -0.2554,0.31864 -0.6142,3.12547 -0.5808,4.54401 0.01,0.43656 -0.1801,1.84706 -0.4231,3.13445 l -0.4417,2.34071 -1.0867,0.46126 c -1.4349,0.60907 -2.4941,0.77609 -3.491,0.55053 z m -34.9019,-5.27007 c -0.5957,-0.13185 -0.7741,-0.30565 -0.7151,-0.6963 0.1519,-1.00465 0.2927,-1.12527 2.1743,-1.8635 1.4632,-0.57406 2.1137,-1.00891 2.8457,-1.90215 0.5218,-0.63688 1.3741,-1.37822 1.8938,-1.64743 0.5198,-0.26921 1.5998,-1.16465 2.4002,-1.98988 0.8004,-0.82522 2.1151,-1.95337 2.9215,-2.507 0.8065,-0.55363 1.801,-1.48959 2.2101,-2.07991 0.6296,-0.90856 1.7209,-1.89217 2.0993,-1.89217 0.058,0 0.5088,0.36196 1.0015,0.80436 1.7837,1.60173 2.9924,2.14783 4.6558,2.10352 0.8424,-0.0224 2.1103,-0.031 2.8177,-0.0191 1.2505,0.0211 1.2715,0.0345 0.7573,0.48469 -0.2908,0.25466 -2.6324,2.87404 -5.2036,5.82083 -2.5711,2.9468 -4.7868,5.35782 -4.9237,5.35782 -0.1369,0 -0.7287,-0.43342 -1.315,-0.96315 -0.5864,-0.52973 -1.0984,-0.91668 -1.1378,-0.8599 -0.039,0.0568 -0.2124,0.43068 -0.3843,0.83086 -0.2914,0.67859 -0.4197,0.7276 -1.9056,0.7276 -1.4168,0 -1.5932,-0.0586 -1.5932,-0.52917 0,-0.75973 -0.8963,-0.66656 -2.6458,0.27502 -1.2438,0.66941 -1.7243,0.77865 -3.3073,0.75195 -1.0187,-0.0172 -2.2093,-0.11032 -2.6458,-0.20696 z m 17.5947,-50.02497 c 0,-0.14137 0.306,-0.94504 0.68,-1.78593 0.6028,-1.35546 1.0421,-4.05635 0.6562,-4.03403 -0.08,0.005 -0.3766,0.18322 -0.6591,0.39688 -0.5848,0.4423 -2,0.52594 -2,0.1182 0,-0.14864 -0.3022,-0.40797 -0.6716,-0.57629 -0.3695,-0.16832 -0.6181,-0.44592 -0.5524,-0.61688 0.1423,-0.3709 -0.6444,-1.09631 -1.3303,-1.22664 -0.346,-0.0657 -0.53,-0.40059 -0.6311,-1.14876 -0.078,-0.58078 -0.3463,-1.49863 -0.5953,-2.03965 -0.2489,-0.54103 -0.4526,-1.10557 -0.4526,-1.25453 0,-0.14896 -0.2381,-0.41955 -0.5292,-0.60131 -0.3621,-0.22615 -0.5291,-0.61702 -0.5291,-1.23822 0,-0.73072 0.2326,-1.13068 1.1929,-2.05083 2.2711,-2.17601 3.0622,-2.5495 5.46,-2.57762 l 2.1371,-0.025 0.9794,1.10267 c 0.5387,0.60648 1.1303,1.61851 1.3147,2.24896 0.1845,0.63046 0.6235,1.69961 0.9756,2.3759 0.3522,0.67629 0.6403,1.41953 0.6403,1.65164 0,0.2321 0.2535,0.71364 0.5634,1.07007 0.4772,0.54879 0.6191,0.59252 0.9261,0.28549 0.1994,-0.19941 0.3625,-0.46639 0.3625,-0.5933 0,-0.75644 0.8962,-1.74675 3.0204,-3.3376 2.1243,-1.59103 2.5073,-1.78386 3.2963,-1.65968 0.491,0.0773 0.9443,0.19211 1.0073,0.25518 0.063,0.0631 -0.1581,1.15498 -0.4916,2.42647 -0.5809,2.21484 -0.6731,2.3726 -2.198,3.76104 -2.0266,1.84526 -4.1205,3.27592 -6.3609,4.34609 -1.2956,0.6189 -2.3043,1.39766 -3.7751,2.91467 -1.9302,1.99079 -2.4359,2.36716 -2.4359,1.81306 z"
           style="fill:#ff1aac;fill-opacity:1;stroke-width:0.264583" /></g><path
         inkscape:transform-center-x="0.060699768"
         d="m 3225.1732,-148.21545 c 0.052,0.10371 -0.8639,0.62522 -0.9001,0.73569 -0.036,0.11047 0.3938,1.07321 0.2901,1.12573 -0.1037,0.0525 -0.6252,-0.86388 -0.7357,-0.90008 -0.1105,-0.0362 -1.0732,0.39377 -1.1257,0.29006 -0.052,-0.10371 0.8639,-0.62523 0.9001,-0.7357 0.036,-0.11046 -0.3938,-1.07321 -0.2901,-1.12572 0.1037,-0.0525 0.6252,0.86388 0.7357,0.90008 0.1105,0.0362 1.0732,-0.39378 1.1257,-0.29006 z"
         inkscape:randomized="0"
         inkscape:rounded="0.1"
         inkscape:flatsided="false"
         sodipodi:arg2="0.31668614"
         sodipodi:arg1="-0.46871202"
         sodipodi:r2="0.35320097"
         sodipodi:r1="1.385102"
         sodipodi:cy="-147.58975"
         sodipodi:cx="3223.9375"
         sodipodi:sides="4"
         id="path2617"
         style="opacity:1;vector-effect:none;fill:#ff1aac;fill-opacity:1;fill-rule:nonzero;stroke:none;stroke-width:0.25;stroke-linecap:butt;stroke-linejoin:round;stroke-miterlimit:4;stroke-dasharray:none;stroke-dashoffset:0;stroke-opacity:1;paint-order:stroke fill markers"
         sodipodi:type="star"
         transform="rotate(35.340023,3224.0119,-147.58975)"
         inkscape:transform-center-y="-0.043034609" /><path
         inkscape:transform-center-x="-0.064722581"
         d="m -3224.6861,-156.80083 c 0.053,0.10535 -0.8776,0.63511 -0.9144,0.74733 -0.037,0.11221 0.4,1.09018 0.2947,1.14352 -0.1054,0.0533 -0.6351,-0.87754 -0.7473,-0.91431 -0.1123,-0.0368 -1.0902,0.4 -1.1436,0.29465 -0.053,-0.10535 0.8776,-0.63511 0.9143,-0.74733 0.037,-0.11222 -0.4,-1.09018 -0.2946,-1.14353 0.1053,-0.0533 0.6351,0.87754 0.7473,0.91432 0.1122,0.0368 1.0902,-0.40001 1.1436,-0.29465 z"
         inkscape:randomized="0"
         inkscape:rounded="0.1"
         inkscape:flatsided="false"
         sodipodi:arg2="0.31668614"
         sodipodi:arg1="-0.46871202"
         sodipodi:r2="0.35878623"
         sodipodi:r1="1.407005"
         sodipodi:cy="-156.16524"
         sodipodi:cx="-3225.9414"
         sodipodi:sides="4"
         id="path2619"
         style="opacity:1;vector-effect:none;fill:#ff1aac;fill-opacity:1;fill-rule:nonzero;stroke:none;stroke-width:0.25;stroke-linecap:butt;stroke-linejoin:round;stroke-miterlimit:4;stroke-dasharray:none;stroke-dashoffset:0;stroke-opacity:1;paint-order:stroke fill markers"
         sodipodi:type="star"
         transform="matrix(-0.85553912,-0.51773818,-0.51773818,0.85553912,385.68789,-1693.2428)"
         inkscape:transform-center-y="0.039200084" /><path
         inkscape:transform-center-x="0.0939417"
         d="m 3224.6623,-152.56581 c 0.066,0.13101 -1.0913,0.7898 -1.137,0.92935 -0.046,0.13955 0.4974,1.35571 0.3664,1.42204 -0.131,0.0663 -0.7898,-1.09127 -0.9293,-1.137 -0.1396,-0.0457 -1.3557,0.49743 -1.4221,0.36642 -0.066,-0.13102 1.0913,-0.78981 1.137,-0.92935 0.046,-0.13955 -0.4974,-1.35571 -0.3664,-1.42205 0.131,-0.0663 0.7898,1.09128 0.9294,1.13701 0.1395,0.0457 1.3557,-0.49743 1.422,-0.36642 z"
         inkscape:randomized="0"
         inkscape:rounded="0.1"
         inkscape:flatsided="false"
         sodipodi:arg2="0.31668614"
         sodipodi:arg1="-0.46871202"
         sodipodi:r2="0.44617185"
         sodipodi:r1="1.7496936"
         sodipodi:cy="-151.77541"
         sodipodi:cx="3223.1013"
         sodipodi:sides="4"
         id="path2621"
         style="opacity:1;vector-effect:none;fill:#ff8dd5;fill-opacity:1;fill-rule:nonzero;stroke:none;stroke-width:0.25;stroke-linecap:butt;stroke-linejoin:round;stroke-miterlimit:4;stroke-dasharray:none;stroke-dashoffset:0;stroke-opacity:1;paint-order:stroke fill markers"
         sodipodi:type="star" /><path
         sodipodi:type="star"
         style="opacity:1;vector-effect:none;fill:#ff1aac;fill-opacity:1;fill-rule:nonzero;stroke:none;stroke-width:0.25;stroke-linecap:butt;stroke-linejoin:round;stroke-miterlimit:4;stroke-dasharray:none;stroke-dashoffset:0;stroke-opacity:1;paint-order:stroke fill markers"
         id="path2623"
         sodipodi:sides="4"
         sodipodi:cx="-3238.8206"
         sodipodi:cy="-151.77541"
         sodipodi:r1="1.2356606"
         sodipodi:r2="0.3150934"
         sodipodi:arg1="-0.46871202"
         sodipodi:arg2="0.31668614"
         inkscape:flatsided="false"
         inkscape:rounded="0.1"
         inkscape:randomized="0"
         d="m -3237.7182,-152.3336 c 0.047,0.0925 -0.7706,0.55777 -0.8029,0.65632 -0.032,0.0985 0.3513,0.95742 0.2587,1.00427 -0.092,0.0469 -0.5577,-0.77067 -0.6563,-0.80297 -0.098,-0.0323 -0.9574,0.35129 -1.0043,0.25877 -0.047,-0.0925 0.7707,-0.55777 0.803,-0.65632 0.032,-0.0986 -0.3513,-0.95742 -0.2588,-1.00427 0.093,-0.0469 0.5578,0.77067 0.6564,0.80297 0.099,0.0323 0.9574,-0.35129 1.0042,-0.25877 z"
         inkscape:transform-center-x="0.066353808"
         transform="scale(-1,1)" /><path
         inkscape:transform-center-x="0.079589015"
         d="m 3225.1732,-148.21545 c 0.052,0.10371 -0.8639,0.62522 -0.9001,0.73569 -0.036,0.11047 0.3938,1.07321 0.2901,1.12573 -0.1037,0.0525 -0.6252,-0.86388 -0.7357,-0.90008 -0.1105,-0.0362 -1.0732,0.39377 -1.1257,0.29006 -0.052,-0.10371 0.8639,-0.62523 0.9001,-0.7357 0.036,-0.11046 -0.3938,-1.07321 -0.2901,-1.12572 0.1037,-0.0525 0.6252,0.86388 0.7357,0.90008 0.1105,0.0362 1.0732,-0.39378 1.1257,-0.29006 z"
         inkscape:randomized="0"
         inkscape:rounded="0.1"
         inkscape:flatsided="false"
         sodipodi:arg2="0.31668614"
         sodipodi:arg1="-0.46871202"
         sodipodi:r2="0.35320097"
         sodipodi:r1="1.385102"
         sodipodi:cy="-147.58975"
         sodipodi:cx="3223.9375"
         sodipodi:sides="4"
         id="path2625"
         style="opacity:1;vector-effect:none;fill:#ff8dd5;fill-opacity:1;fill-rule:nonzero;stroke:none;stroke-width:0.19057;stroke-linecap:butt;stroke-linejoin:round;stroke-miterlimit:4;stroke-dasharray:none;stroke-dashoffset:0;stroke-opacity:1;paint-order:stroke fill markers"
         sodipodi:type="star"
         transform="matrix(-1.0701227,0.75881193,0.75881193,1.0701227,6799.9258,-2436.0693)"
         inkscape:transform-center-y="-0.056467799" /><path
         inkscape:transform-center-x="-0.098862988"
         d="m -3224.6861,-156.80083 c 0.053,0.10535 -0.8776,0.63511 -0.9144,0.74733 -0.037,0.11221 0.4,1.09018 0.2947,1.14352 -0.1054,0.0533 -0.6351,-0.87754 -0.7473,-0.91431 -0.1123,-0.0368 -1.0902,0.4 -1.1436,0.29465 -0.053,-0.10535 0.8776,-0.63511 0.9143,-0.74733 0.037,-0.11222 -0.4,-1.09018 -0.2946,-1.14353 0.1053,-0.0533 0.6351,0.87754 0.7473,0.91432 0.1122,0.0368 1.0902,-0.40001 1.1436,-0.29465 z"
         inkscape:randomized="0"
         inkscape:rounded="0.1"
         inkscape:flatsided="false"
         sodipodi:arg2="0.31668614"
         sodipodi:arg1="-0.46871202"
         sodipodi:r2="0.35878623"
         sodipodi:r1="1.407005"
         sodipodi:cy="-156.16524"
         sodipodi:cx="-3225.9414"
         sodipodi:sides="4"
         id="path2627"
         style="opacity:1;vector-effect:none;fill:#ff8dd5;fill-opacity:1;fill-rule:nonzero;stroke:none;stroke-width:0.163829;stroke-linecap:butt;stroke-linejoin:round;stroke-miterlimit:4;stroke-dasharray:none;stroke-dashoffset:0;stroke-opacity:1;paint-order:stroke fill markers"
         sodipodi:type="star"
         transform="matrix(1.3055346,-0.79005754,0.79005754,1.3055346,7570.9554,-2500.9056)"
         inkscape:transform-center-y="0.05985079" /></g></g></svg>
