<!-- Generated by IcoMoon.io -->
<svg version="1.1" xmlns="http://www.w3.org/2000/svg" width="384" height="448" viewBox="0 0 384 448">
<title></title>
<g id="icomoon-ignore">
</g>
<path d="M192 32c106 0 192 86 192 192s-86 192-192 192-192-86-192-192 86-192 192-192zM224 343.75v-47.5c0-4.5-3.5-8.25-7.75-8.25h-48c-4.5 0-8.25 3.75-8.25 8.25v47.5c0 4.5 3.75 8.25 8.25 8.25h48c4.25 0 7.75-3.75 7.75-8.25zM223.5 257.75l4.5-155.25c0-1.75-0.75-3.5-2.5-4.5-1.5-1.25-3.75-2-6-2h-55c-2.25 0-4.5 0.75-6 2-1.75 1-2.5 2.75-2.5 4.5l4.25 155.25c0 3.5 3.75 6.25 8.5 6.25h46.25c4.5 0 8.25-2.75 8.5-6.25z"></path>
</svg>
