<!-- Generated by IcoMoon.io -->
<svg version="1.1" xmlns="http://www.w3.org/2000/svg" width="448" height="448" viewBox="0 0 448 448">
<title></title>
<g id="icomoon-ignore">
</g>
<path d="M344 352h8v-160h-8c-26.5 0-44.25-22.5-60.25-40.75-10.25-11.5-19.75-23-28-36.25-3.5-5.5-6.5-11.25-9.5-17s-15.5-34-22.25-34c-21.25 0-40 8-40 32 0 32 24 48.25 24 64h-144c-16.75 0-32 15-32 32 0 17.25 14.75 32 32 32h82.75c-5.25 6-8.75 17.75-8.75 25.75 0 11.75 4.75 21.75 13.25 29.75-3 5.25-4.5 11.25-4.5 17.25 0 11.5 5.75 25.75 16.25 31.5-0.75 4.5-1 9.25-1 14 0 29.5 18.25 41.75 46 41.75 49.75 0 92.25-32 136-32zM416 336c0-8.75-7.25-16-16-16s-16 7.25-16 16 7.25 16 16 16 16-7.25 16-16zM448 192v160c0 17.75-14.25 32-32 32h-72c-15.75 0-40.5 9.25-55.75 14.75-25.5 9.25-51.75 17.25-79.25 17.25-46 0-79.5-26-79.25-73.75l0.25-1.25c-10-12.5-15.25-28.5-15.25-44.5 0-3.5 0.25-7.25 0.75-10.75-5.25-9.25-8.5-19.25-9.25-29.75h-42.25c-35 0-64-29.25-64-64.25 0-34.5 29.5-63.75 64-63.75h93.5c-3.75-10.25-5.5-21-5.5-32 0-42.25 32.25-64 72-64 33.5 0 44.25 42.75 58.75 66 7.5 11.75 16 22 25 32.25 7.25 8.25 24.25 29.75 36.25 29.75h72c17.75 0 32 14.25 32 32z"></path>
</svg>
