<?xml version="1.0" encoding="UTF-8" standalone="no"?>
<!-- Created with Inkscape (http://www.inkscape.org/) -->

<svg
   width="48"
   height="48"
   viewBox="0 0 12.7 12.7"
   version="1.1"
   id="svg42522"
   xml:space="preserve"
   inkscape:version="1.2.2 (b0a8486541, 2022-12-01)"
   sodipodi:docname="wanda_isologo.svg"
   xmlns:inkscape="http://www.inkscape.org/namespaces/inkscape"
   xmlns:sodipodi="http://sodipodi.sourceforge.net/DTD/sodipodi-0.dtd"
   xmlns="http://www.w3.org/2000/svg"
   xmlns:svg="http://www.w3.org/2000/svg"><sodipodi:namedview
     id="namedview42524"
     pagecolor="#505050"
     bordercolor="#eeeeee"
     borderopacity="1"
     inkscape:showpageshadow="0"
     inkscape:pageopacity="0"
     inkscape:pagecheckerboard="0"
     inkscape:deskcolor="#505050"
     inkscape:document-units="px"
     showgrid="false"
     inkscape:zoom="4.2331174"
     inkscape:cx="40.986343"
     inkscape:cy="28.347903"
     inkscape:window-width="1356"
     inkscape:window-height="697"
     inkscape:window-x="0"
     inkscape:window-y="35"
     inkscape:window-maximized="1"
     inkscape:current-layer="layer1" /><defs
     id="defs42519" /><g
     inkscape:label="Layer 1"
     inkscape:groupmode="layer"
     id="layer1"><g
       aria-label="W"
       id="text42700"
       style="font-weight:bold;font-size:13.4056px;font-family:'Script MT Bold';-inkscape-font-specification:'Script MT Bold,  Bold';text-align:center;text-anchor:middle;fill:#000000;stroke-width:16.9333;stroke-linecap:round;stroke-linejoin:round;paint-order:stroke fill markers"
       transform="matrix(1.0303793,0,0,1.0035539,-0.19290881,-0.02256713)"><path
         d="m 6.0652625,8.8831872 q -1.1782266,2.2124478 -2.5659156,2.2124478 -0.726573,0 -1.1651351,-0.530202 -0.4385621,-0.536748 -0.4385621,-1.413872 0,-1.0211296 0.726573,-3.1026632 0.7331188,-2.0815335 0.7331188,-2.9455663 0,-0.3861965 -0.2225539,-0.6414789 -0.2160082,-0.2552824 -0.5432934,-0.2552824 -0.5040191,0 -1.0014925,0.6152961 -0.4974735,0.6152961 -0.4974735,1.2567749 0,0.4909278 0.4451078,1.0211297 0.1832797,0.2225539 0.1832797,0.307648 0,0.098186 -0.2814652,0.4385621 -0.2814652,0.3403766 -0.48438202,0.3403766 -0.21600819,0 -0.49092771,-0.3141938 -0.27491953,-0.3141937 -0.27491953,-0.9360355 0,-1.2633206 0.88366986,-2.2975417 0.8902156,-1.0342211 1.9637109,-1.0342211 0.8051215,0 1.3615062,0.6676617 0.5563848,0.6676617 0.5563848,1.6626086 0,1.0473125 -0.6742074,2.9652034 -0.6676617,1.9113453 -0.6676617,2.5593699 0,0.307648 0.1570968,0.4909277 0.1570969,0.1767342 0.418925,0.1767342 0.5694762,0 1.1324066,-0.9294901 Q 5.8819828,8.2678911 6.3467277,6.5332798 L 6.9620238,4.2291924 Q 7.3220374,2.8676862 7.7671452,1.8531023 7.8129652,1.7418253 8.3758956,1.682914 8.9453718,1.617457 9.2006542,1.617457 q 0.2552824,0 0.2552824,0.1047313 L 8.258073,6.2910888 q -0.5171106,2.0095308 -0.5171106,2.9390207 0,0.4058335 0.1701883,0.6480245 0.1701883,0.235645 0.4581992,0.235645 0.4254707,0 1.1585894,-0.6938442 0.7396647,-0.7003902 1.2436837,-1.7804312 0.504019,-1.0865866 0.504019,-2.2189933 0,-1.210955 -0.589113,-2.4088186 -0.163643,-0.3469223 -0.163643,-0.4320164 0,-0.2814652 0.536748,-0.6218418 0.543293,-0.3403766 0.778938,-0.3403766 0.222554,0 0.445108,0.595659 0.2291,0.5891133 0.2291,1.2371379 0,1.7215198 -0.805122,3.5281338 -0.805121,1.8000683 -2.0029847,2.9586578 -1.1978636,1.1585896 -2.1666277,1.1585896 -0.6872988,0 -1.0931324,-0.549839 Q 6.0456254,9.989411 6.0652625,8.8831872 Z"
         id="path42808"
         style="fill:#000000" /></g></g></svg>
