<?xml version="1.0" encoding="UTF-8" standalone="no"?>
<!-- Created with Inkscape (http://www.inkscape.org/) -->

<svg
   width="48"
   height="48"
   viewBox="0 0 12000000 12000000"
   version="1.1"
   id="svg5"
   xml:space="preserve"
   inkscape:version="1.2.2 (b0a8486541, 2022-12-01)"
   sodipodi:docname="isologo.svg"
   xmlns:inkscape="http://www.inkscape.org/namespaces/inkscape"
   xmlns:sodipodi="http://sodipodi.sourceforge.net/DTD/sodipodi-0.dtd"
   xmlns="http://www.w3.org/2000/svg"
   xmlns:svg="http://www.w3.org/2000/svg"><sodipodi:namedview
     id="namedview7"
     pagecolor="#505050"
     bordercolor="#eeeeee"
     borderopacity="1"
     inkscape:showpageshadow="0"
     inkscape:pageopacity="0"
     inkscape:pagecheckerboard="0"
     inkscape:deskcolor="#505050"
     inkscape:document-units="px"
     showgrid="false"
     inkscape:zoom="9.191912"
     inkscape:cx="28.557715"
     inkscape:cy="19.691224"
     inkscape:window-width="1356"
     inkscape:window-height="697"
     inkscape:window-x="0"
     inkscape:window-y="35"
     inkscape:window-maximized="1"
     inkscape:current-layer="layer1" /><defs
     id="defs2" /><g
     inkscape:label="Layer 1"
     inkscape:groupmode="layer"
     id="layer1"><path
       style="fill:#000000;stroke-width:14630.6"
       d="m 2529478.3,9963360.1 c -80240.4,-37877.6 -205145.1,-156019.2 -385705.2,-364824.4 -54303.4,-62796.7 -106558.5,-114175.8 -116123.6,-114175.8 -9565.2,0 -89198.5,43326.4 -176962.8,96280.5 -193667.7,116851.6 -317484.2,159896 -422731.5,146956.5 -160871.9,-19776.3 -330551.8,-141705.7 -410253.1,-294801 -36589.25,-70282.4 -38573.48,-85715.9 -43269.03,-336451.5 -11097.3,-592517 79846.33,-856792.2 541532.43,-1573660.5 100327.7,-155779.2 182413.4,-292752.1 182413.4,-304383.7 0,-30917.9 -60038.1,-15105.5 -220076.8,57961.8 -430766.5,196672.7 -795293.18,522801.6 -961833.7,860521 -64140.52,130067.2 -85141.98,213796.1 -79404.31,316573.3 4493.53,80486 4666.55,80755 50748.95,78698 28125.29,-1254.9 102767.04,-36688.6 190525.33,-90443.6 179613.05,-110019.9 206386.19,-119870.5 206386.19,-75941.2 0,70400.4 -178712.95,376863 -267971.41,459526.9 -93150.92,86266.8 -295044.58,125890.4 -404714.43,79427.1 C 146457.03,8876839.5 79950.236,8794893.6 40852.653,8693700.3 14349.547,8625103.9 6470.6238,8570651.9 1774.0734,8423625.4 -8830.1694,8091686.7 57349.587,7921692 288782.71,7686392.8 664971.8,7303919 1273370.1,7028207.3 1829145.2,6988336.7 c 150448.6,-10792.6 223551.2,3195.9 229409.9,43897.4 3993.4,27740 -77630.1,168092.8 -359367.1,617940 -218454.6,348806.1 -354253.6,666673.2 -430602.5,1007922.6 -55862.6,249682.7 -40220.7,450270.2 46983.5,602516.6 90511.6,158019.1 221441,159814 471382.2,6462.7 l 114087.4,-69998.4 377.1,-126651.3 c 772.1,-259684.3 31319.6,-820504.5 51320,-942200.9 47231.5,-287384.4 269287.5,-708418.7 493556.8,-935819.3 138626.3,-140561.7 266065.2,-205643.3 399634.9,-204088.4 234874.5,2733.9 355623.6,163449 353376.4,470334.5 -1836.2,250725.7 -79863.4,530837.3 -235970.7,847114.6 -106241.4,215247 -174786.5,328817.7 -342334.1,567197.9 -166762.5,237265.1 -187100.9,276753.7 -176535.7,342769.2 9360.1,58482.8 104214.2,212808.1 170102.9,276751.7 43577.1,42291.5 48469.7,43392.4 185422.8,41732.5 161595.9,-1957.9 227257.6,-22014.2 360718.2,-110181.9 109218.8,-72152.3 138230.2,-113580.8 256934.2,-366916.4 191528.4,-408754.8 354690.5,-864345.8 414581.5,-1157620.9 41334.9,-202413.5 77024.1,-492417.7 71769.5,-583184.4 l -4387.6,-75774.1 -75141.8,-24768.1 c -105091.3,-34639.7 -142613.7,-63123.7 -189347.2,-143736.7 -103326.1,-178233.4 -5961.7,-445764.4 162230.1,-445764.4 67954.9,0 149744.5,74795.2 228183.7,208671.2 32453.8,55390 66933.8,100709.3 76622,100709.3 9689.1,0 102115,-32286.8 205391.1,-71748.3 946970.9,-361836.6 1445421.4,-415338.6 1679153.8,-180235.3 78934.2,79397 103013,150545.4 96655.3,285589.3 l -4314.5,91619.6 -50853,5418.8 c -27969.3,2980.9 -158735.6,-2786.9 -290591,-12815.5 -271545.9,-20654.2 -379747.6,-12867.5 -828184.1,59595.8 -475089.7,76770.1 -740529.8,132989.1 -754703.5,159843.1 -7046.8,13349.5 -23571.7,113638.7 -36721.3,222862.7 -55678.5,462458.8 -82028.6,653378.7 -110043.9,797310.3 -127234.9,653682.7 -326646.2,1072041.2 -668608.3,1402714.9 -225197.4,217762.9 -399857.9,304301.9 -613648.9,304043.5 -96038.3,-118 -134172.8,-7208.6 -196205,-36490.5 z M 2509806,8417140.6 c 210109.6,-394588.3 348008.7,-832776 287729.7,-914291 -21194.5,-28660.9 -23504.8,-27644 -84629.9,37224.6 -156116.3,165675.9 -361483.4,768132.5 -360374.3,1057179.7 l 323.1,84188.9 27250.2,-35949.7 c 14987.7,-19772.2 73352.6,-122530.4 129700.2,-228352.5 z m 3653053.1,1473297.2 c -25819,-11757.5 -68318,-52543 -94442.1,-90636.6 -97626.4,-142354.7 -69752.1,-138196.9 -260290.5,-38830.5 -270386.7,141005.7 -350562.1,135384.9 -504896.2,-35394.7 l -85152.9,-94227.5 -63524.5,37097.6 c -168900.8,98633.3 -471939.3,150200.4 -655160.8,111486.8 -188415,-39812.5 -327837.4,-147131.5 -400828.9,-308537.5 -49573.8,-109620.9 -61702.3,-353130.9 -25403,-510027 45253.3,-195600.7 124515.6,-427548.1 181243.2,-530376.3 94044,-170469.7 364083.7,-455187.1 496867.3,-523873.5 85338,-44144.4 255963,-62673.7 477322.9,-51835.1 366778,17957.3 520672,73518.3 664852.9,240036.1 l 81143.5,93714.5 -69339.1,150443.4 c -294861.6,639754.2 -384062,860207 -422913.6,1045205.1 -32915.8,156731.2 -19350.2,224261.7 60717.2,302247.8 35355.1,34436.7 76657.9,62612.7 91781.7,62612.7 34324,0 152278.9,-93505.5 225456.4,-178725.4 80228.4,-93429.5 130541.3,-212454.1 195349.9,-462134.8 104279.3,-401747.1 484891.9,-1362748.3 539727.3,-1362748.3 19898.3,0 198245.2,185924.1 241593.3,251858.6 l 34826.1,52971 -27829.3,64888.6 c -15306.8,35688.7 -116281.6,251427.7 -224388.3,479421.2 -108106.6,227992.5 -212685.9,460027.9 -232398.2,515633.8 -40061.7,113007.8 -62754.4,248484.8 -43630.1,260469.3 6893.8,4320.9 64599.5,-79492 128236,-186249 314540.9,-527681.4 673829,-1091045.5 830019.3,-1301470.6 177974.8,-239775.1 252172.5,-286346.4 370220.4,-232371.4 74235.7,33943.7 183288.4,156171.2 194786.8,218321.9 12245.4,66181.5 -30159.5,185832.1 -178094.9,502508.3 -238501.9,510550 -294799.5,662633.4 -305762.8,825992.3 -5738.7,85513.8 -1624.2,114596.7 23193.7,163922.9 44194.2,87836.7 92850.9,99758.3 193875.7,47499.2 79742.4,-41249.4 188574.1,-146372.5 252269.6,-243673.9 33781,-51605.1 79279.3,-164436.9 129913.2,-322175 42858,-133516.1 106130.5,-296433 140604.5,-362038.6 82109.6,-156254.2 218823.6,-327847.8 356457.8,-447401.3 172739.2,-150045.5 222750.1,-168167.8 549273.4,-199044.6 325615.1,-30790.9 372027.6,-49679.2 435848,-177380.4 106165.5,-212432.2 341482.1,-855921.2 341482.1,-933803.3 0,-45511.3 -60063.1,-85120.9 -322557.9,-212715.1 -305357.7,-148429.5 -338816.7,-179688.3 -455330.3,-425397.2 -123630.5,-260716.3 -231881.2,-427630.1 -364701.8,-562342.1 -58822.9,-59659.8 -106950.5,-113160.8 -106950.5,-118890.6 0,-28047.9 120409.1,-146864.5 248547.1,-245259.9 164158.3,-126054.3 187417,-156915.1 149921.6,-198926.6 -30893.6,-34612.7 -90602.6,-36095.6 -196051,-4868.8 -68679,20338.3 -95888.2,41252.5 -209735.6,161210 -147643.3,155567.2 -224824.3,200599.6 -394318.2,230070.5 -148186.3,25766 -242304.4,2520.9 -336131.4,-83015.9 -68227,-62198.7 -134150.7,-174341.6 -114312.4,-194456.8 5340.7,-5415.8 55580.6,5402.8 111646.1,24039.1 72537.5,24113.1 123819.5,32005.8 177814.9,27369 87451.2,-7509.7 228337.7,-67819.5 327146.3,-140042.8 60632.1,-44319.4 63442.4,-48650.2 24793.9,-38214.6 -23973.8,6473.8 -93797,11769.6 -155162.2,11769.6 -89970.5,0 -119510,-5907.8 -152560.8,-30511.9 -36678.3,-27305 -98006.5,-122835.4 -86408.2,-134597 2511.3,-2545.9 33372.9,5878.8 68582.1,18720.3 80823.4,29478.9 158675.6,19896.3 269111.5,-33122.8 l 84363.9,-40501.5 -47384.6,-9826.6 c -26061,-5404.8 -114073.3,-14377.5 -195581.9,-19939.3 -136156.9,-9290.6 -187363.9,-4143.8 -299282.1,30081.9 l -34847,10656.6 27582.2,-48344.2 c 48751.7,-85446.8 120775.1,-121550.4 264139.9,-132409 116129.7,-8795.7 121870.3,-10636.6 68917.1,-22100.2 -138849.3,-30061.9 -489916.4,89363.7 -537611,182882.2 -19474.3,38184.6 -18872.2,45082.3 6821.8,78204.1 15499.8,19979.2 49005.8,45072.3 74457.7,55761.9 40544.8,17029.4 42855.1,20797.2 18654.2,30423.9 -82588.7,32851.7 -231954.2,-597 -307686,-68903.5 -29763.5,-26846 -75246.9,-66282.5 -101074.9,-87636.7 -28693.3,-23725.1 -53671.3,-62757.7 -64218.5,-100354.3 -9493.1,-33839.7 -28461.3,-74786.2 -42151.9,-90991.6 -110358,-130636.1 -91367.8,-315887.3 45207.3,-440997.6 31497.6,-28853.9 57268.7,-66002.6 57268.7,-82551.9 0,-16549.4 12503.4,-54687 27786.2,-84749.9 60782.1,-119568.5 196504,-206422.3 331902.9,-212395.1 l 72513.5,-3199.9 -28349.3,-38879.5 c -19652.3,-26953 -34030,-85941.8 -46869.5,-192296.9 -19517.3,-161674 -45219.3,-232039.3 -98601.6,-269951.9 -38070.4,-27038 -92510.8,-30098.9 -107184.5,-6025.8 -14101.7,23136.1 37228.3,58827.8 69616.1,48404.2 27533.3,-8860.7 36596.3,14761.4 11659.4,30388.9 -24570.9,15397.4 -16114.9,36831.6 14528.7,36831.6 38770.6,0 36946.3,36924.6 -3232.4,65459.6 -75617.8,53705 -219138.7,10838.6 -265038,-79161.1 -20820.5,-40825.5 -20446.4,-52912 4567.5,-147480.5 32860.9,-124230.2 59984,-169063.1 122177.3,-201944.2 67548.9,-35713.2 219947.8,-35119.7 294086.5,1145.2 33425.9,16350.2 146588.2,119629.2 266348.2,243085.4 l 208229.4,214656 -95232.1,-132465 c -147647.4,-205373.3 -181050.3,-282848.9 -196955.1,-456832 -14539.7,-159044.4 -621.1,-349044.4 19426.2,-265183.4 57348.8,239896.9 141341.6,394555.2 301594.4,555330.5 167498.6,168044.8 183235.5,164583.9 64178.5,-14116.4 -190352.3,-285711.3 -269733.6,-462707.2 -269733.6,-601420.6 0,-57091.7 41099.8,-309780 53427.3,-328484.4 2048.2,-3106.4 69811.1,58068.4 150585.6,135944 80774.5,77875.6 197047.1,175653.9 258383.3,217285.2 l 111521.1,75693.2 9213,-102525.4 c 9453.1,-105196.8 45298.4,-206368.3 101442.9,-286317.6 29037.4,-41347.6 148395.4,-130192.1 174906.5,-130192.1 6092.7,0 -8263.9,43710.3 -31903.7,97134 -41670.9,94174.1 -59035.9,229911.2 -31611.7,247097.1 6252.7,3918.5 30757.6,-30495.7 54454.4,-76475.8 55074.4,-106863 210969.7,-266953.3 304679.7,-312879.5 110617.9,-54212 284040.3,-58588.5 389098.6,-9819.4 168631.7,78279.9 214991.2,297657.9 91058.6,430899.4 -60648.1,65203.5 -122320.3,69244.2 -179041.9,11730.8 l -39008.6,-39553.4 46933.5,-19418.5 c 57600.7,-23831.6 59021.9,-46275.5 6182.7,-97605.9 -58270.8,-56607 -119255,-53154.2 -181830.3,10294.8 -59306.9,60135.7 -77039,124273.3 -96734.3,349888 -18967.3,217285.7 -19093.3,341240 -334.1,329484.5 7991,-5007.8 14529.7,-24099.1 14529.7,-42425 0,-56842.5 76634,-191061.2 129282.2,-226426.3 71569.4,-48075.8 125309.7,-43146.8 184555.6,16926.9 55521.5,56296.8 66994.9,93086 21296.5,68287.5 -15456.8,-8387.9 -48460.7,-15250.7 -73341.6,-15250.7 -126203.8,0 -188759.1,240848.1 -105363.3,405672.2 l 28117.3,55570.9 9822.1,-75074.2 c 27692.3,-211675.4 142620.7,-311859.8 357753.9,-311859.8 124938.7,0 209179.6,30975.3 259041.1,95249.6 43291,55804.6 39578,100060.4 -13544,161408.3 -49019,56608.8 -87351.5,69134.4 -75919.2,24807 6645.8,-25766 -27777.2,-75858.1 -52127.1,-75858.1 -25758,0 -62322.3,60623.7 -69558.1,115329.7 -10922.3,82569.9 19850.3,244678.9 63673.4,335426.5 45622.4,94474.5 112840.2,162015 309790,311279.4 175574,133062.1 271678,249921.7 316697,385087.7 25541,76688.2 27934,103911.1 16398,186508.1 -15955,114237.7 -50725,188834.9 -144041,309033.5 -102988,132656 -107872,146284.5 -116138,324112.9 l -7532,162057 h -69260 c -68762,0 -69585,581 -114652,81028 -71077.9,126875.3 -124670.2,187963 -181617.9,207020.3 -48930.7,16374.4 -60057,13475.5 -174872.4,-45554.3 -168437.8,-86597.8 -253124.7,-79055.1 -344169.4,30656.8 -44173.2,53229.1 -46571.4,86897.8 -15022.7,210892.2 60988.1,239698.1 185924.7,397753.2 543620.7,687721.4 263580.7,213674.1 357194.7,328468.8 391747.7,480384.2 15928,70026.4 14261,83451.9 -21953,176789.4 -21555,55553.9 -104576,240229.1 -184490,410388.7 -362618.5,772111.3 -433328.8,925782.6 -511810,1112297.7 -247169,587404.2 -303299.5,929881.4 -158445.6,966745.1 94573.1,24068.1 412045.3,-118812.6 476640.9,-214515.1 48964.7,-72544.3 70423.2,-135068 138042.7,-402220 107250,-423724.3 198698,-612328.3 391870,-808197 150059,-152154.3 297501,-241693 421528,-255984.5 118641,-13670.4 620945,17420.4 708791,43872.4 101131,30451.9 247573,141660.7 275369,209116.2 42425,102953.2 11950,195548.8 -246896,750176.2 -141787,303807.7 -160630,377088.9 -151082,587585.1 10897,240227.1 55802,326930.8 153107,295617 48737,-15684.4 189061,-157935.1 290441,-294428 53680,-72272.4 105772,-134149.1 115761,-137502.9 75282,-25280.1 -87193,253545.5 -234055,401667 -210034,211833.2 -388359,204540.4 -553288,-22629.1 -35084,-48323.2 -65982,-93947.5 -68661,-101386.3 -2679,-7438.7 -74507,21310.3 -159617,63885.7 -182984,91536.6 -290949,118069.6 -440760,108320.9 -134575,-8756.6 -279368,-75961.1 -399768,-185549.1 l -79913,-72736.2 -58117.7,39648.5 c -188982.1,128922.2 -389956.7,208872.2 -530329.1,210972.1 -125483.7,1876 -187319,-21395.2 -287193.7,-108081.9 -45820.3,-39770.6 -88805.4,-72368.4 -95522.2,-72440.4 -6716.8,-74 -45946.4,28804 -87177.2,64169.7 -171505.1,147109.5 -321989.7,208945.2 -477179.9,196080.7 -186132.8,-15431.5 -342998.2,-130754.2 -513551.2,-377549 -73978.7,-107051 -85579,-117848.6 -108297.7,-100806.2 -259070.4,194333.7 -379626.5,262234.2 -465214.5,262021.2 -59762,-149 -188655.1,-70447.4 -220614.9,-120322.5 -41797.9,-65228.6 -70720.3,-184763.1 -106545.5,-440347.6 -43317,-309024.6 -48998.7,-337857.5 -66584.8,-337857.5 -24600.8,0 -136005.9,192939.8 -308029.1,533468.2 -196431,388843.5 -307839,580638.4 -358883,617835 -51080,37223.6 -142561.7,46788.3 -199504.4,20860.2 z m 2538612.5,-319934.1 c 59976,-30387.8 132842.6,-87726.7 210755.7,-165843.8 136051,-136406.9 125281.7,-106440 209608.6,-583259.3 71158.3,-402351.1 78598.2,-468295.6 58413.8,-517705.8 -48231.6,-118066.6 -259589.4,-127476.2 -485893.9,-21633.2 -246690.9,115377.7 -445701.3,419658.4 -523159.3,799894.3 -20724.5,101733.2 -20532.4,117400.6 2453.3,200467.5 20806.4,75188.2 40719.7,106808.1 120260.1,190959.9 145375,153803.3 247610,178165.4 407561.7,97120.4 z m -3846302.8,-19572.2 c 154327.1,-40758.5 187536,-64304.6 239339.1,-169698.7 76150.9,-154931.3 236257.7,-811222.9 236257.7,-968443 0,-109830.9 -30264.6,-154216.3 -123130.5,-180580.3 -276476.4,-78489.1 -645432.6,147560.5 -822999.4,504231.2 -58579.9,117664.7 -85001,244862.9 -85253,410414.8 -350,230194.4 56071.6,357744.7 177524.8,401326.1 80751.5,28975.9 273648.1,30377.8 378261.3,2749.9 z m 5880588.2,-32784.8 c 35961,-11979.6 118822,-51070.1 184135,-86867.8 139445,-76428.1 123757,-43172.4 236238,-500784.4 138258,-562480.1 138890,-614806.1 8249,-682587.6 -60060,-31160.8 -92788,-37688.6 -188884,-37675.6 -102510,14 -128145,5902.8 -217075,49866.2 -175913,86962.7 -385149,334208.5 -477751,564537 -27654,68784.4 -31299,106184 -31464,322902 -186,243432.9 58,245319.8 36136,276226.7 149034,127679.2 272685,153589.3 450416,94383.5 z M 7321313.9,4233599.2 c 0,-29821.9 -174.1,-29815.9 -30660.6,1095.9 -20134.4,20415.3 -32773.9,55678.9 -36815.3,102717.2 l -6155.8,71629.3 36816.4,-72725.3 c 20248.3,-39998.5 36815.3,-86221.8 36815.3,-102717.1 z m 668359.3,-215183 c 0,-27374 -91559.7,-71880.4 -167727.7,-81530 -50042.8,-6339.8 -98972.6,-2164.9 -146254.1,12477.5 -63329.4,19613.3 -66313.8,22299.2 -27463.2,24717.1 23973.8,1491.9 82818.7,14657.5 130766.3,29256.9 97693.5,29746.9 210678.7,37833.6 210678.7,15078.5 z m 686661.5,3411949.1 c -147770.3,-138718.8 -246242.9,-321768 -308015.1,-572563.7 -34395.1,-139640.8 -88125.4,-429225.1 -87906.3,-473774.4 87,-16668.4 61428.2,95656.4 136324.9,249609.7 153258,315026.3 225356.5,431843 322664.9,522790.6 l 67015.8,62635.7 -10041.2,108646.9 c -5522.6,59755.8 -14667.7,126189.3 -20323.3,147630.5 l -10282.2,38983.6 z M 6289716,6425827.6 c -417883,-56490.9 -707958,-99936.2 -879038.1,-131658.1 -606896.1,-112529.8 -857388.4,-282753.4 -887944,-603407.5 -7645.9,-80245 -18602.2,-114567.8 -49379.8,-154690.3 -60384.1,-78720 -103756.2,-174637.5 -98764.6,-218422.9 3683.4,-32314.8 12795.5,-40210.5 50705,-43934.3 l 46213.4,-4540.8 -42581,-101462.3 c -23419.8,-55803.9 -42582,-114692.7 -42582,-130865.1 0,-78022.1 76033.9,-41335.5 193738.7,93478.5 46621.5,53398 130676.3,134230 186787.9,179626.3 139085.3,112522.9 156337.3,154096.3 156747.4,377729 l 320,173706.5 170722,-11649.5 c 314287.8,-21447.2 965564.2,-12455.6 1158731.8,15996.4 212163.9,31250.8 404022.4,72472.3 563324,121030.5 l 119565,36446.6 457680.7,-228034.5 c 466381.6,-232369.4 616033.2,-294534.1 819074,-340243.4 193897.7,-43650.3 347779.7,-9836.6 435326,95659.5 149950.6,180694.3 -41193.8,557309.3 -309979.3,610757.3 -27969.3,5561.8 -139120.3,32424.8 -247003,59695.8 -384140,97104.4 -801097.9,170665.6 -1168329.9,206118.3 -276037.4,26649 -428697.3,26327 -633333.2,-1336 z"
       id="path450" /></g></svg>
